HIERARCHY
ROOT Hips
{
	OFFSET	0.00	0.00	0.00
	CHANNELS 6 Xposition Yposition Zposition Zrotation Xrotation Yrotation
	JOINT LeftUpLeg
	{
		OFFSET	 0.126116	-0.014019	-0.065224
		CHANNELS 3 Zrotation Xrotation Yrotation
		JOINT LeftLeg
		{
			OFFSET	 0.000000	 0.000000	 0.569914
			CHANNELS 3 Zrotation Xrotation Yrotation
			JOINT LeftFoot
			{
				OFFSET	 0.000000	 0.000000	 0.544423
				CHANNELS 3 Zrotation Xrotation Yrotation
				JOINT LeftToeBase
				{
					OFFSET	 0.000000	 0.000000	 0.207117
					CHANNELS 3 Zrotation Xrotation Yrotation
					End Site
					{
						OFFSET	 0.000000	 0.000000	 0.207117
					}
				}
			}
		}
	}
	JOINT RightUpLeg
	{
		OFFSET	-0.124023	-0.008373	-0.065224
		CHANNELS 3 Zrotation Xrotation Yrotation
		JOINT RightLeg
		{
			OFFSET	 0.000000	 0.000000	 0.570047
			CHANNELS 3 Zrotation Xrotation Yrotation
			JOINT RightFoot
			{
				OFFSET	 0.000000	 0.000000	 0.544354
				CHANNELS 3 Zrotation Xrotation Yrotation
				JOINT RightToeBase
				{
					OFFSET	 0.000000	 0.000000	 0.207540
					CHANNELS 3 Zrotation Xrotation Yrotation
					End Site
					{
						OFFSET	 0.000000	 0.000000	 0.207540
					}
				}
			}
		}
	}
	JOINT Spine
	{
		OFFSET	 0.000184	-0.007763	 0.117403
		CHANNELS 3 Zrotation Xrotation Yrotation
		JOINT Spine1
		{
			OFFSET	 0.000000	 0.000000	 0.137269
			CHANNELS 3 Zrotation Xrotation Yrotation
			JOINT Spine2
			{
				OFFSET	 0.000000	 0.000000	 0.156879
				CHANNELS 3 Zrotation Xrotation Yrotation
				JOINT LeftShoulder
				{
					OFFSET	 0.080501	-0.002496	 0.160144
					CHANNELS 3 Zrotation Xrotation Yrotation
					JOINT LeftArm
					{
						OFFSET	 0.000000	 0.000000	 0.164363
						CHANNELS 3 Zrotation Xrotation Yrotation
						JOINT LeftForeArm
						{
							OFFSET	 0.000000	 0.000000	 0.364576
							CHANNELS 3 Zrotation Xrotation Yrotation
							JOINT LeftHand
							{
								OFFSET	 0.000000	 0.000000	 0.360812
								CHANNELS 3 Zrotation Xrotation Yrotation
								JOINT LeftHandIndex1
								{
									OFFSET	 0.000000	 0.000000	 0.086006
									CHANNELS 3 Zrotation Xrotation Yrotation
									JOINT LeftHandIndex2
									{
										OFFSET	 0.000000	 0.000000	 0.047236
										CHANNELS 3 Zrotation Xrotation Yrotation
										JOINT LeftHandIndex3
										{
											OFFSET	-0.004284	-0.000551	 0.038166
											CHANNELS 3 Zrotation Xrotation Yrotation
											End Site
											{
												OFFSET	-0.004284	-0.000551	 0.038166
											}
										}
									}
								}
							}
						}
					}
				}
				JOINT Neck
				{
					OFFSET	 0.000000	 0.000000	 0.176489
					CHANNELS 3 Zrotation Xrotation Yrotation
					JOINT Head
					{
						OFFSET	 0.000000	-0.001747	 0.077940
						CHANNELS 3 Zrotation Xrotation Yrotation
						End Site
						{
							OFFSET	 0.000000	-0.001747	 0.077940
						}
					}
				}
				JOINT RightShoulder
				{
					OFFSET	-0.080363	 0.000306	 0.159706
					CHANNELS 3 Zrotation Xrotation Yrotation
					JOINT RightArm
					{
						OFFSET	 0.000000	 0.000000	 0.164196
						CHANNELS 3 Zrotation Xrotation Yrotation
						JOINT RightForeArm
						{
							OFFSET	 0.000000	 0.000000	 0.365611
							CHANNELS 3 Zrotation Xrotation Yrotation
							JOINT RightHand
							{
								OFFSET	 0.000000	 0.000000	 0.360648
								CHANNELS 3 Zrotation Xrotation Yrotation
								JOINT RightHandIndex1
								{
									OFFSET	 0.000000	 0.000000	 0.069977
									CHANNELS 3 Zrotation Xrotation Yrotation
									JOINT RightHandIndex2
									{
										OFFSET	 0.000000	 0.000000	 0.052305
										CHANNELS 3 Zrotation Xrotation Yrotation
										JOINT RightHandIndex3
										{
											OFFSET	 0.009002	-0.000782	 0.042196
											CHANNELS 3 Zrotation Xrotation Yrotation
											End Site
											{
												OFFSET	 0.009002	-0.000782	 0.042196
											}
										}
									}
								}
							}
						}
					}
				}
			}
		}
	}
}
MOTION
Frames:    7
Frame Time: 0.03333334
-0.000504	 0.014897	 1.265551	 0.004073	 0.007444	-0.096259	 2.557556	-3.847717	 178.009300	 1.411747	-16.103600	-0.951647	-8.254108	 73.137650	 2.197902	-2.385833	 28.452760	 0.000004	-2.681211	-4.108447	-177.832700	-1.391859	-16.546720	 0.961326	 8.097725	 73.429750	-2.185428	 2.384658	 28.388730	 0.000004	-11.467090	 2.723136	-0.015827	 1.154228	 3.668507	 0.470798	-3.467326	-4.626466	-0.767500	-91.776180	 78.527470	 180.000000	 50.992150	 36.432870	-53.364440	-22.717240	 2.322322	-8.149858	-38.502490	-14.538730	-6.622549	-2.635965	 4.993658	 6.788941	-5.165319	 0.784187	 3.516649	-5.225038	 0.466231	 0.424329	-0.000002	-3.783157	-0.089647	-3.360157	 4.942302	 0.145039	 89.782110	 78.203900	 180.000000	 1.344728	 12.728750	 106.765800	-19.788930	 1.989237	 8.248358	 10.430680	-16.580640	-3.954437	 6.112037	 4.509576	-0.364401	 4.968462	 1.518543	-9.347576	 5.168945	 0.703820	 2.021906
-0.000517	 0.013204	 1.265832	 0.004069	 0.007451	-0.096262	 2.562159	-3.716694	 177.999900	 1.415659	-15.875380	-0.937438	-8.186256	 73.042720	 2.126600	-2.385833	 28.452760	 0.000004	-2.689774	-3.880815	-177.817900	-1.396877	-16.257150	 0.943554	 8.046938	 73.369840	-2.131274	 2.384658	 28.388730	 0.000004	-11.282780	 2.723127	-0.015825	 1.154231	 3.668509	 0.470757	-3.467318	-4.626475	-0.767482	-91.776260	 78.527490	-179.999900	 51.018320	 36.428760	-53.395090	-22.879990	 2.369296	-8.231438	-38.495010	-13.859360	-6.521327	-2.635965	 4.993658	 6.788941	-5.165319	 0.784187	 3.516649	-5.225038	 0.466231	 0.424329	-0.000002	-3.783157	-0.089647	-3.360157	 4.942302	 0.145039	 89.782100	 78.203870	 180.000000	 1.348562	 12.882780	 106.806300	-19.738040	 2.035424	 8.330902	 10.556800	-16.010490	-4.056985	 6.112037	 4.509576	-0.364401	 4.968462	 1.518543	-9.347576	 5.168945	 0.703820	 2.021906
-0.000521	 0.011443	 1.266090	 0.004073	 0.007444	-0.096259	 2.566576	-3.591511	 177.991000	 1.419283	-15.660790	-0.924107	-8.124264	 72.955380	 2.061406	-2.385833	 28.452760	 0.000004	-2.698367	-3.653628	-177.803200	-1.401674	-15.974760	 0.926275	 8.000758	 73.316540	-2.081896	 2.384658	 28.388730	 0.000004	-11.035610	 2.723137	-0.015827	 1.154228	 3.668512	 0.470798	-3.467326	-4.626470	-0.767500	-91.776250	 78.527450	-180.000000	 51.078070	 36.433630	-53.473900	-23.042990	 2.416890	-8.313169	-38.476840	-13.071530	-6.400214	-2.635965	 4.993658	 6.788941	-5.165319	 0.784187	 3.516649	-5.225038	 0.466231	 0.424329	-0.000002	-3.783157	-0.089647	-3.360157	 4.942302	 0.145039	 89.782130	 78.203900	 180.000000	 1.258203	 13.054960	 106.819300	-19.699780	 2.082225	 8.413537	 10.705860	-15.306920	-4.177109	 6.112037	 4.509576	-0.364401	 4.968462	 1.518543	-9.347576	 5.168945	 0.703820	 2.021906
-0.000506	 0.009791	 1.266242	 0.004066	 0.007447	-0.096253	 2.569591	-3.505737	 177.985000	 1.421551	-15.524710	-0.915668	-8.088805	 72.906270	 2.023992	-2.385833	 28.452760	 0.000004	-2.705256	-3.470874	-177.791600	-1.405073	-15.771070	 0.913841	 7.978330	 73.296740	-2.057417	 2.384658	 28.388730	 0.000004	-10.746780	 2.723131	-0.015832	 1.154233	 3.668514	 0.470768	-3.467325	-4.626471	-0.767489	-91.776130	 78.527450	 180.000000	 51.164970	 36.453580	-53.596690	-23.184700	 2.458605	-8.384015	-38.448540	-12.262780	-6.272766	-2.635965	 4.993658	 6.788941	-5.165319	 0.784187	 3.516649	-5.225038	 0.466231	 0.424329	-0.000002	-3.783157	-0.089647	-3.360157	 4.942302	 0.145039	 89.782100	 78.203900	 180.000000	 1.230212	 13.277640	 106.819100	-19.676120	 2.123305	 8.484995	 10.637320	-14.472830	-4.304563	 6.112037	 4.509576	-0.364401	 4.968462	 1.518543	-9.347576	 5.168945	 0.703820	 2.021906
-0.000475	 0.008082	 1.266314	 0.004070	 0.007449	-0.096264	 2.571572	-3.448323	 177.981200	 1.422810	-15.448460	-0.910945	-8.074148	 72.888020	 2.008351	-2.385833	 28.452760	 0.000004	-2.711240	-3.312099	-177.781800	-1.407543	-15.621440	 0.904722	 7.975750	 73.306400	-2.053678	 2.384658	 28.388730	 0.000004	-10.383720	 2.723130	-0.015823	 1.154229	 3.668509	 0.470798	-3.467325	-4.626466	-0.767499	-91.776250	 78.527450	-180.000000	 51.284260	 36.500070	-53.777130	-23.315780	 2.497591	-8.449433	-38.405590	-11.359240	-6.127513	-2.635965	 4.993658	 6.788941	-5.165319	 0.784187	 3.516649	-5.225038	 0.466231	 0.424329	-0.000002	-3.783157	-0.089647	-3.360157	 4.942302	 0.145039	 89.782110	 78.203850	 180.000000	 1.163361	 13.599780	 106.799800	-19.629330	 2.161719	 8.551003	 10.218710	-13.408190	-4.447489	 6.112037	 4.509576	-0.364401	 4.968462	 1.518543	-9.347576	 5.168945	 0.703820	 2.021906
-0.000451	 0.006408	 1.266488	 0.004072	 0.007447	-0.096262	 2.574935	-3.353111	 177.974500	 1.425358	-15.293310	-0.901343	-8.032682	 72.829500	 1.964628	-2.385833	 28.452760	 0.000004	-2.718737	-3.115868	-177.769200	-1.411277	-15.391700	 0.890748	 7.944986	 73.274290	-2.020503	 2.384658	 28.388730	 0.000004	-9.951031	 2.723133	-0.015825	 1.154226	 3.668513	 0.470799	-3.467324	-4.626471	-0.767500	-91.776180	 78.527450	 180.000000	 51.433750	 36.564860	-54.007470	-23.426030	 2.530647	-8.504349	-38.347820	-10.397640	-5.970618	-2.635965	 4.993658	 6.788941	-5.165319	 0.784187	 3.516649	-5.225038	 0.466231	 0.424329	-0.000002	-3.783157	-0.089647	-3.360157	 4.942302	 0.145039	 89.782150	 78.203900	 180.000000	 0.309719	 14.153560	 106.687200	-19.303800	 2.196677	 8.607555	 9.466925	-12.262780	-4.563285	 6.112037	 4.509576	-0.364401	 4.968462	 1.518543	-9.347576	 5.168945	 0.703820	 2.021906
-0.000454	 0.004786	 1.266947	 0.004073	 0.007444	-0.096259	 2.582238	-3.149998	 177.959500	 1.431458	-14.914140	-0.877938	-7.916891	 72.657220	 1.842980	-2.385833	 28.452760	 0.000004	-2.730632	-2.811068	-177.748300	-1.418516	-14.935270	 0.863077	 7.837207	 73.126430	-1.906809	 2.384658	 28.388730	 0.000004	-9.441042	 2.723136	-0.015827	 1.154228	 3.668513	 0.470795	-3.467324	-4.626468	-0.767499	-91.776190	 78.527470	 180.000000	 51.606840	 36.649150	-54.280110	-23.510520	 2.556092	-8.546494	-38.273160	-9.381198	-5.803342	-2.635965	 4.993658	 6.788941	-5.165319	 0.784187	 3.516649	-5.225038	 0.466231	 0.424329	-0.000002	-3.783157	-0.089647	-3.360157	 4.942302	 0.145039	 89.782180	 78.203900	 179.999900	-1.939196	 14.904760	 106.439800	-18.512910	 2.228547	 8.652109	 9.134713	-11.347950	-4.632786	 6.112037	 4.509576	-0.364401	 4.968462	 1.518543	-9.347576	 5.168945	 0.703820	 2.021906
